<svg xmlns="http://www.w3.org/2000/svg" viewBox="0 0 1600 1000" role="img" aria-label="Campo cultivado al atardecer">
  <defs>
    <linearGradient id="sky" x1="0" y1="0" x2="0" y2="1">
      <stop offset="0" stop-color="#ffe8a7"/>
      <stop offset="0.28" stop-color="#f6c06d"/>
      <stop offset="0.58" stop-color="#d9d883"/>
      <stop offset="1" stop-color="#7ca052"/>
    </linearGradient>
    <linearGradient id="field" x1="0" y1="0" x2="0" y2="1">
      <stop offset="0" stop-color="#9ebf4d"/>
      <stop offset="0.48" stop-color="#557f32"/>
      <stop offset="1" stop-color="#1f5a34"/>
    </linearGradient>
    <linearGradient id="sunGlow" x1="0" y1="0" x2="1" y2="1">
      <stop offset="0" stop-color="#fff7bf"/>
      <stop offset="0.55" stop-color="#f2c94c"/>
      <stop offset="1" stop-color="#ec7f2b"/>
    </linearGradient>
    <filter id="blur">
      <feGaussianBlur stdDeviation="7"/>
    </filter>
    <filter id="soft">
      <feGaussianBlur stdDeviation="2.2"/>
    </filter>
  </defs>

  <rect width="1600" height="1000" fill="url(#sky)"/>
  <circle cx="1045" cy="128" r="68" fill="url(#sunGlow)" opacity="0.95"/>
  <circle cx="1045" cy="128" r="170" fill="#f2c94c" opacity="0.24" filter="url(#blur)"/>
  <rect y="250" width="1600" height="210" fill="#f7b46a" opacity="0.18"/>

  <g opacity="0.34" fill="#1d4f2c" filter="url(#soft)">
    <path d="M0 340 C160 280 250 310 360 285 C520 250 680 330 820 286 C1010 226 1160 285 1325 260 C1440 242 1532 258 1600 224 L1600 445 L0 445 Z"/>
    <circle cx="135" cy="279" r="68"/>
    <circle cx="235" cy="310" r="46"/>
    <circle cx="1280" cy="250" r="58"/>
    <circle cx="1425" cy="235" r="76"/>
  </g>

  <path d="M0 420 C190 365 355 390 530 405 C760 425 940 360 1130 383 C1325 407 1450 390 1600 348 L1600 1000 L0 1000 Z" fill="#bed066"/>
  <path d="M0 535 C280 455 520 495 780 478 C1070 460 1320 505 1600 430 L1600 1000 L0 1000 Z" fill="url(#field)"/>

  <g opacity="0.55" stroke="#2a612f" stroke-width="3" fill="none">
    <path d="M565 1000 L790 490"/>
    <path d="M710 1000 L875 485"/>
    <path d="M855 1000 L955 486"/>
    <path d="M1010 1000 L1048 488"/>
    <path d="M1160 1000 L1145 492"/>
    <path d="M1320 1000 L1248 500"/>
    <path d="M1485 1000 L1360 510"/>
  </g>

  <g opacity="0.74">
    <path d="M380 1000 C500 795 660 620 810 492 L865 492 C720 650 610 820 550 1000 Z" fill="#6f4b24" opacity="0.42"/>
    <path d="M675 1000 C760 790 855 615 940 487 L987 488 C925 660 875 830 852 1000 Z" fill="#5c3f1f" opacity="0.35"/>
    <path d="M990 1000 C1020 805 1050 625 1080 488 L1120 490 C1130 650 1168 820 1240 1000 Z" fill="#5c3f1f" opacity="0.3"/>
  </g>

  <g stroke="#82a83e" stroke-width="8" stroke-linecap="round" opacity="0.9">
    <path d="M520 955 C500 850 515 720 620 575"/>
    <path d="M610 960 C600 820 630 690 725 555"/>
    <path d="M725 965 C720 825 760 660 835 525"/>
    <path d="M840 960 C835 795 885 640 955 510"/>
    <path d="M965 965 C955 790 990 625 1060 505"/>
    <path d="M1095 960 C1085 775 1100 625 1155 510"/>
    <path d="M1240 965 C1210 805 1202 650 1235 525"/>
    <path d="M1395 970 C1345 810 1315 672 1325 545"/>
  </g>

  <g fill="#355f25" opacity="0.95">
    <path d="M600 805 c-42 12-76 42-104 90 c66-10 105-37 136-87Z"/>
    <path d="M650 760 c48 8 88 38 119 88 c-72-8-116-34-149-88Z"/>
    <path d="M785 730 c-52 9-90 38-124 88 c78-8 128-35 164-88Z"/>
    <path d="M910 692 c54 10 96 40 132 90 c-82-6-135-34-176-88Z"/>
    <path d="M1045 708 c-58 8-103 40-145 96 c88-11 146-43 188-96Z"/>
    <path d="M1190 720 c60 8 110 42 150 98 c-92-10-154-43-198-98Z"/>
    <path d="M1325 770 c-58 12-105 45-142 101 c90-14 149-47 190-101Z"/>
  </g>

  <g opacity="0.42" fill="#153c24">
    <ellipse cx="470" cy="676" rx="24" ry="34"/>
    <path d="M442 711 c15-18 42-24 64-9 l24 92 h-96Z"/>
    <path d="M433 794 h98 l42 148 h-48 l-36-86 l-27 86 h-48Z"/>
    <path d="M443 725 c-42 18-68 47-83 88 l36 10 c15-32 35-53 62-63Z"/>
    <path d="M505 725 c42 18 69 45 88 84 l-34 15 c-18-31-40-52-68-64Z"/>
    <ellipse cx="470" cy="634" rx="50" ry="14"/>
    <rect x="440" y="610" width="60" height="36" rx="8"/>
  </g>

  <rect width="1600" height="1000" fill="#163f25" opacity="0.05"/>
</svg>
